<svg xmlns="http://www.w3.org/2000/svg" viewBox="0 0 400 400" width="400" height="400">
  <defs>
    <style>
      .dotted {
        fill: none;
        stroke: #555;
        stroke-width: 2.5;
        stroke-dasharray: 6 5;
        stroke-linecap: round;
        stroke-linejoin: round;
      }
      .vein {
        fill: none;
        stroke: #999;
        stroke-width: 1.5;
        stroke-dasharray: 4 6;
        stroke-linecap: round;
      }
      .guide-dot { fill: #888; }
    </style>
  </defs>
  <rect width="400" height="400" fill="white" />
  <!-- Canadian maple leaf (official geometry from flag specification) -->
  <polygon class="dotted" points="
    192.4,370.0 196.2,297.2 186.8,288.9 114.4,301.7 124.2,274.7
    122.5,268.5 43.1,204.2 61.0,195.9 63.8,189.2 48.1,140.9
    93.9,150.6 100.0,147.4 108.9,126.6 144.6,164.9 153.9,160.1
    136.7,71.3 164.3,87.3 172.0,85.0 200.0,30.0 228.0,85.0
    235.7,87.3 263.3,71.3 246.1,160.1 255.4,164.9 291.1,126.6
    300.0,147.4 306.1,150.6 351.9,140.9 336.2,189.2 339.0,195.9
    356.9,204.2 277.5,268.5 275.8,274.7 285.6,301.7 213.2,288.9
    203.8,297.2 207.6,370.0
  " />
  <!-- Guide dots at key points -->
  <circle class="guide-dot" cx="200" cy="30" r="3" />
  <circle class="guide-dot" cx="200" cy="370" r="3" />
  <circle class="guide-dot" cx="43.1" cy="204.2" r="3" />
  <circle class="guide-dot" cx="356.9" cy="204.2" r="3" />
</svg>
