<svg xmlns="http://www.w3.org/2000/svg" width="400" height="400">
<rect width="400" height="400" fill="white"/>
<path d="M 165.3,275.6 L 164.6,269.8 L 163.8,263.7 L 162.9,257.5 L 161.8,251.0 L 160.8,244.5 L 159.8,237.8 L 158.7,231.1 L 157.8,224.4 L 157.0,217.8 L 156.3,211.2 L 155.7,204.8 L 155.4,198.5 L 155.3,192.4 L 155.4,186.6 L 155.9,181.1 L 155.9,181.1 L 160.3,178.7 L 165.4,176.6 L 171.0,174.7 L 177.0,173.1 L 183.4,171.8 L 190.1,170.8 L 196.9,170.1 L 203.9,169.7 L 210.8,169.6 L 217.6,169.9 L 224.3,170.5 L 230.6,171.4 L 236.7,172.7 L 242.2,174.4 L 247.3,176.4 L 247.3,176.4 L 248.3,182.7 L 249.1,189.0 L 249.6,195.3 L 249.7,201.7 L 249.6,208.1 L 249.2,214.5 L 248.5,221.0 L 247.5,227.5 L 246.3,234.1 L 244.9,240.8 L 243.3,247.5 L 241.4,254.4 L 239.3,261.4 L 237.1,268.4 L 234.7,275.6 L 234.7,275.6 L 226.0,275.6 L 217.3,275.6 L 208.7,275.6 L 200.0,275.6 L 191.3,275.6 L 182.7,275.6 L 174.0,275.6 L 165.3,275.6 Z" fill="none" stroke="#666" stroke-width="2" stroke-dasharray="6,3"/>
<path d="M 172.0,165.2 L 172.1,167.5 L 171.8,169.8 L 171.2,171.9 L 170.2,173.8 L 168.9,175.4 L 167.4,176.5 L 165.7,177.2 L 163.9,177.4 L 162.1,177.2 L 160.3,176.4 L 158.7,175.2 L 157.3,173.6 L 156.1,171.7 L 155.3,169.5 L 154.8,167.2 L 154.7,164.9 L 155.0,162.6 L 155.7,160.5 L 156.7,158.6 L 158.0,157.0 L 159.5,155.9 L 161.2,155.2 L 163.0,155.0 L 164.8,155.3 L 166.6,156.0 L 168.2,157.2 L 169.6,158.8 L 170.7,160.7 L 171.6,162.9 L 172.0,165.2 Z" fill="none" stroke="#666" stroke-width="2" stroke-dasharray="6,3"/>
<path d="M 173.2,149.3 L 173.2,151.1 L 172.9,152.9 L 172.3,154.6 L 171.4,156.0 L 170.2,157.2 L 168.8,158.1 L 167.2,158.7 L 165.6,158.9 L 163.9,158.7 L 162.3,158.2 L 160.9,157.3 L 159.6,156.1 L 158.6,154.6 L 157.9,153.0 L 157.5,151.2 L 157.5,149.4 L 157.8,147.6 L 158.4,146.0 L 159.3,144.5 L 160.5,143.3 L 161.9,142.4 L 163.5,141.8 L 165.1,141.6 L 166.8,141.8 L 168.4,142.3 L 169.8,143.2 L 171.1,144.4 L 172.1,145.9 L 172.8,147.6 L 173.2,149.3 Z" fill="none" stroke="#666" stroke-width="2" stroke-dasharray="6,3"/>
<path d="M 173.9,136.9 L 173.9,138.4 L 173.6,139.8 L 173.0,141.1 L 172.2,142.3 L 171.1,143.3 L 169.8,144.0 L 168.4,144.5 L 166.9,144.7 L 165.5,144.6 L 164.1,144.1 L 162.8,143.4 L 161.7,142.5 L 160.8,141.3 L 160.1,140.0 L 159.8,138.6 L 159.8,137.2 L 160.1,135.7 L 160.7,134.4 L 161.5,133.2 L 162.6,132.2 L 163.9,131.5 L 165.3,131.0 L 166.8,130.8 L 168.2,130.9 L 169.7,131.4 L 170.9,132.1 L 172.1,133.0 L 172.9,134.2 L 173.6,135.5 L 173.9,136.9 Z" fill="none" stroke="#666" stroke-width="2" stroke-dasharray="6,3"/>
<path d="M 197.3,157.9 L 197.2,160.6 L 196.7,163.2 L 195.8,165.6 L 194.6,167.7 L 193.0,169.3 L 191.3,170.5 L 189.4,171.1 L 187.4,171.2 L 185.4,170.7 L 183.6,169.7 L 181.9,168.2 L 180.5,166.2 L 179.5,163.9 L 178.7,161.3 L 178.4,158.6 L 178.5,155.9 L 179.0,153.3 L 179.9,150.9 L 181.2,148.9 L 182.7,147.2 L 184.5,146.0 L 186.4,145.4 L 188.3,145.3 L 190.3,145.8 L 192.1,146.8 L 193.8,148.4 L 195.2,150.3 L 196.3,152.6 L 197.0,155.2 L 197.3,157.9 Z" fill="none" stroke="#666" stroke-width="2" stroke-dasharray="6,3"/>
<path d="M 197.3,139.0 L 197.2,141.2 L 196.7,143.3 L 195.9,145.2 L 194.7,146.9 L 193.3,148.2 L 191.7,149.2 L 189.9,149.7 L 188.1,149.8 L 186.3,149.4 L 184.7,148.6 L 183.1,147.3 L 181.9,145.8 L 180.9,143.9 L 180.2,141.9 L 180.0,139.7 L 180.1,137.6 L 180.6,135.5 L 181.4,133.6 L 182.5,131.9 L 183.9,130.6 L 185.6,129.6 L 187.3,129.1 L 189.1,129.0 L 190.9,129.4 L 192.6,130.2 L 194.1,131.4 L 195.4,133.0 L 196.4,134.8 L 197.0,136.9 L 197.3,139.0 Z" fill="none" stroke="#666" stroke-width="2" stroke-dasharray="6,3"/>
<path d="M 197.1,123.6 L 197.0,125.5 L 196.6,127.2 L 195.8,128.8 L 194.8,130.2 L 193.5,131.3 L 192.0,132.1 L 190.4,132.5 L 188.8,132.6 L 187.1,132.3 L 185.6,131.6 L 184.2,130.6 L 183.1,129.3 L 182.2,127.8 L 181.6,126.1 L 181.4,124.3 L 181.5,122.5 L 181.9,120.7 L 182.7,119.1 L 183.7,117.7 L 185.0,116.6 L 186.5,115.8 L 188.1,115.4 L 189.7,115.3 L 191.3,115.6 L 192.9,116.3 L 194.3,117.3 L 195.4,118.6 L 196.3,120.2 L 196.9,121.9 L 197.1,123.6 Z" fill="none" stroke="#666" stroke-width="2" stroke-dasharray="6,3"/>
<path d="M 221.5,155.5 L 221.2,158.6 L 220.5,161.5 L 219.4,164.1 L 217.9,166.3 L 216.3,168.1 L 214.4,169.2 L 212.5,169.8 L 210.5,169.7 L 208.6,169.0 L 206.8,167.7 L 205.3,165.8 L 204.1,163.5 L 203.2,160.8 L 202.7,157.8 L 202.6,154.7 L 203.0,151.7 L 203.7,148.8 L 204.8,146.2 L 206.2,143.9 L 207.9,142.2 L 209.7,141.0 L 211.7,140.4 L 213.6,140.5 L 215.5,141.2 L 217.3,142.6 L 218.8,144.4 L 220.0,146.8 L 220.9,149.5 L 221.4,152.4 L 221.5,155.5 Z" fill="none" stroke="#666" stroke-width="2" stroke-dasharray="6,3"/>
<path d="M 219.9,134.5 L 219.6,136.9 L 219.0,139.1 L 218.0,141.1 L 216.7,142.8 L 215.2,144.1 L 213.5,145.0 L 211.7,145.4 L 209.9,145.3 L 208.1,144.8 L 206.5,143.8 L 205.1,142.3 L 204.0,140.5 L 203.1,138.5 L 202.7,136.2 L 202.6,133.8 L 202.9,131.5 L 203.5,129.3 L 204.5,127.3 L 205.8,125.6 L 207.3,124.3 L 209.0,123.4 L 210.8,123.0 L 212.6,123.0 L 214.3,123.6 L 215.9,124.6 L 217.4,126.1 L 218.5,127.9 L 219.3,129.9 L 219.8,132.2 L 219.9,134.5 Z" fill="none" stroke="#666" stroke-width="2" stroke-dasharray="6,3"/>
<path d="M 218.4,117.7 L 218.2,119.6 L 217.6,121.5 L 216.7,123.2 L 215.5,124.6 L 214.2,125.8 L 212.6,126.5 L 211.0,126.9 L 209.4,126.8 L 207.8,126.3 L 206.3,125.4 L 205.0,124.2 L 204.0,122.7 L 203.2,120.9 L 202.8,119.0 L 202.7,117.0 L 202.9,115.1 L 203.5,113.2 L 204.4,111.5 L 205.6,110.1 L 206.9,109.0 L 208.5,108.2 L 210.1,107.9 L 211.8,107.9 L 213.3,108.4 L 214.8,109.3 L 216.1,110.5 L 217.1,112.0 L 217.9,113.8 L 218.3,115.7 L 218.4,117.7 Z" fill="none" stroke="#666" stroke-width="2" stroke-dasharray="6,3"/>
<path d="M 245.5,162.6 L 244.9,165.2 L 244.0,167.7 L 242.8,170.0 L 241.3,171.8 L 239.6,173.2 L 237.7,174.1 L 235.8,174.4 L 233.9,174.2 L 232.1,173.4 L 230.5,172.1 L 229.2,170.4 L 228.1,168.2 L 227.5,165.7 L 227.2,163.1 L 227.3,160.4 L 227.8,157.7 L 228.7,155.3 L 230.0,153.0 L 231.5,151.2 L 233.2,149.8 L 235.1,148.9 L 237.0,148.6 L 238.9,148.8 L 240.7,149.6 L 242.3,150.9 L 243.6,152.6 L 244.6,154.8 L 245.3,157.2 L 245.6,159.9 L 245.5,162.6 Z" fill="none" stroke="#666" stroke-width="2" stroke-dasharray="6,3"/>
<path d="M 242.3,143.7 L 241.8,145.8 L 241.0,147.8 L 240.0,149.6 L 238.6,151.1 L 237.1,152.2 L 235.5,152.9 L 233.7,153.1 L 232.0,152.9 L 230.4,152.2 L 229.0,151.2 L 227.8,149.7 L 226.8,148.0 L 226.2,146.0 L 225.9,143.9 L 226.0,141.8 L 226.4,139.6 L 227.2,137.6 L 228.3,135.9 L 229.6,134.4 L 231.1,133.3 L 232.8,132.6 L 234.5,132.4 L 236.2,132.6 L 237.8,133.2 L 239.3,134.3 L 240.5,135.7 L 241.4,137.5 L 242.1,139.4 L 242.3,141.5 L 242.3,143.7 Z" fill="none" stroke="#666" stroke-width="2" stroke-dasharray="6,3"/>
<path d="M 239.5,128.3 L 239.1,130.0 L 238.4,131.7 L 237.5,133.2 L 236.3,134.4 L 235.0,135.3 L 233.5,135.9 L 232.0,136.1 L 230.5,135.9 L 229.1,135.3 L 227.8,134.4 L 226.7,133.2 L 225.8,131.8 L 225.3,130.1 L 225.0,128.3 L 225.1,126.5 L 225.5,124.8 L 226.1,123.1 L 227.1,121.7 L 228.2,120.4 L 229.6,119.5 L 231.0,119.0 L 232.6,118.8 L 234.1,118.9 L 235.5,119.5 L 236.8,120.4 L 237.9,121.6 L 238.7,123.1 L 239.3,124.7 L 239.5,126.5 L 239.5,128.3 Z" fill="none" stroke="#666" stroke-width="2" stroke-dasharray="6,3"/>
<path d="M 263.6,219.4 L 260.4,222.2 L 256.9,224.5 L 253.4,226.2 L 250.0,227.2 L 246.8,227.6 L 244.0,227.2 L 241.7,226.0 L 239.9,224.3 L 238.9,221.9 L 238.6,219.1 L 239.0,215.9 L 240.1,212.5 L 241.9,209.0 L 244.3,205.7 L 247.2,202.5 L 250.4,199.7 L 253.9,197.4 L 257.4,195.7 L 260.8,194.7 L 264.0,194.4 L 266.8,194.8 L 269.1,195.9 L 270.9,197.7 L 271.9,200.0 L 272.2,202.9 L 271.8,206.0 L 270.7,209.4 L 268.9,212.9 L 266.5,216.3 L 263.6,219.4 Z" fill="none" stroke="#666" stroke-width="2" stroke-dasharray="6,3"/>
<path d="M 285.1,240.3 L 282.4,242.6 L 279.5,244.5 L 276.5,246.0 L 273.5,246.8 L 270.8,247.0 L 268.4,246.7 L 266.4,245.7 L 264.9,244.2 L 264.0,242.1 L 263.7,239.7 L 264.0,237.0 L 264.9,234.1 L 266.4,231.1 L 268.4,228.2 L 270.9,225.6 L 273.6,223.2 L 276.5,221.3 L 279.5,219.9 L 282.5,219.0 L 285.2,218.8 L 287.6,219.2 L 289.6,220.1 L 291.1,221.7 L 292.0,223.7 L 292.3,226.1 L 292.0,228.9 L 291.1,231.8 L 289.6,234.7 L 287.6,237.6 L 285.1,240.3 Z" fill="none" stroke="#666" stroke-width="2" stroke-dasharray="6,3"/>
</svg>